<svg xmlns="http://www.w3.org/2000/svg" viewBox="0 0 120 100">
  <path d="M91.69 47.11c8.65.66 21.02 3.06 22 13.68 1.2 9.85-6.68 20.91-17.19 20.47-4.71-.22-8.43-3.5-11.82-6.68-2.85-2.63-5.8-5.14-8.65-7.77-3.94-3.5-11.27-9.09-6.46-14.56 2.52-2.63 6.9-2.96 10.4-3.61 3.83-.55 7.66-1.42 11.49-1.53h.23ZM57.86 26.32c0 4.82.88 12.37-2.96 15.76-2.19 1.86-5.36 2.3-7.99.88-1.75-.88-3.39-2.41-4.93-3.83-4.16-4.16-8.54-7.99-12.04-12.7C20.43 13.73 34-.28 47.68 2.02c12.26 2.52 9.52 14.45 10.18 23.86v.44ZM105.48 27.19c0 5.91-2.96 10.29-8.21 11.71-8.43 2.3-16.86 4.27-25.39 6.24-4.6.99-9.3-3.83-7.66-7.99 3.06-8.21 7.22-15.87 14.12-21.67 5.14-4.27 10.95-5.8 17.19-2.74 6.24 3.06 9.3 8.43 9.96 14.34v.11h-.01ZM25.79 70.87c-8.87.44-19.37-5.8-19.59-15.43-.22-7.99 7.55-13.46 14.89-14.01 8.54-.77 21.02 2.08 26.6 8.65 2.08 3.28 1.86 8.43-1.09 11.16-2.96 2.52-7.01 3.83-10.51 5.58-3.5 1.42-6.68 3.39-9.96 4.05h-.34ZM74.17 83.45c.55 9.52-9.96 14.89-18.06 14.78-6.57 0-14.45-4.16-15.98-11.06-1.42-6.79 3.17-13.14 6.79-18.61 4.49-7.44 6.24-5.25 13.68-6.46 6.46-1.86 8.32 3.28 10.18 8.87 1.2 4.05 2.85 7.99 3.5 12.04v.44h-.11Z" />
  <path d="M71.1 50.92c0 7.55-6.02 14.34-12.37 14.12-6.13 0-11.93-6.68-11.93-13.35s5.47-13.24 12.48-13.03c6.9 0 11.93 5.25 11.82 12.37v-.11Z" />
  <path d="M70.43 50.97c0 7.13-5.69 13.54-11.68 13.34-5.79 0-11.27-6.31-11.27-12.61s5.17-12.51 11.79-12.31c6.52 0 11.27 4.96 11.16 11.68v-.1Z" fill="#fff" />
</svg>
